<svg width="36" height="36" viewBox="0 0 36 36" fill="none" xmlns="http://www.w3.org/2000/svg">
<path d="M17.9875 1C27.3688 1 34.975 8.61051 34.975 18C34.975 27.3895 27.3688 35 17.9875 35C8.60622 35 1 27.3895 1 18C1 8.61051 8.60622 1 17.9875 1Z" stroke="#0FA958" stroke-width="2"/>
<path d="M31.9779 18C31.9779 10.268 25.7142 4 17.9876 4C10.261 4 3.99731 10.268 3.99731 18C3.99731 25.732 10.261 32 17.9876 32C25.7142 32 31.9779 25.732 31.9779 18Z" fill="#0FA958"/>
<path d="M12.5587 19.7053C12.5587 20.0274 12.6155 20.3301 12.7293 20.6135C12.8431 20.8841 12.9948 21.1224 13.1844 21.3285C13.3867 21.5346 13.6206 21.6957 13.886 21.8116C14.1642 21.9275 14.4612 21.9855 14.7773 21.9855C15.0807 21.9855 15.3651 21.9275 15.6306 21.8116C15.9087 21.6957 16.1426 21.5346 16.3322 21.3285C16.5345 21.1224 16.6925 20.8841 16.8063 20.6135C16.9327 20.343 16.9959 20.0531 16.9959 19.744C16.9959 19.4348 16.9327 19.1449 16.8063 18.8744C16.6925 18.591 16.5345 18.3462 16.3322 18.1401C16.1426 17.934 15.9087 17.7729 15.6306 17.657C15.3651 17.5411 15.0807 17.4831 14.7773 17.4831C14.4612 17.4831 14.1642 17.5411 13.886 17.657C13.6206 17.7729 13.3867 17.934 13.1844 18.1401C12.9948 18.3462 12.8431 18.5845 12.7293 18.8551C12.6155 19.1127 12.5587 19.3961 12.5587 19.7053ZM16.8822 14.7778H20.3334V24.6908H16.8822V23.5894C16.1489 24.5298 15.1565 25 13.905 25C13.1971 25 12.546 24.8712 11.9518 24.6135C11.3577 24.343 10.8394 23.9694 10.3969 23.4928C9.95443 23.0161 9.60678 22.4557 9.35394 21.8116C9.11375 21.1675 8.99365 20.4654 8.99365 19.7053C8.99365 18.9968 9.11375 18.3269 9.35394 17.6957C9.59414 17.0515 9.92915 16.4911 10.359 16.0145C10.7888 15.5378 11.3008 15.1643 11.895 14.8937C12.4891 14.6103 13.1465 14.4686 13.8671 14.4686C15.0807 14.4686 16.0857 14.9002 16.8822 15.7633V14.7778ZM24.774 14.7778V24.6908H21.3417V14.7778H24.774ZM21.1141 10.971C21.1141 10.7005 21.1647 10.4493 21.2658 10.2174C21.367 9.97262 21.506 9.76006 21.683 9.57971C21.86 9.39936 22.0623 9.25765 22.2898 9.15459C22.53 9.05153 22.7829 9 23.0483 9C23.3138 9 23.5603 9.05153 23.7879 9.15459C24.0281 9.25765 24.2367 9.39936 24.4137 9.57971C24.5906 9.76006 24.7297 9.97262 24.8308 10.2174C24.932 10.4493 24.9825 10.7005 24.9825 10.971C24.9825 11.2415 24.932 11.4992 24.8308 11.744C24.7297 11.9758 24.5906 12.182 24.4137 12.3623C24.2367 12.5427 24.0281 12.6844 23.7879 12.7874C23.5603 12.8905 23.3138 12.942 23.0483 12.942C22.7829 12.942 22.53 12.8905 22.2898 12.7874C22.0623 12.6844 21.86 12.5427 21.683 12.3623C21.506 12.182 21.367 11.9758 21.2658 11.744C21.1647 11.4992 21.1141 11.2415 21.1141 10.971Z" fill="white"/>
</svg>
